<svg width="71" height="72" viewBox="0 0 71 72" fill="none" xmlns="http://www.w3.org/2000/svg">
<path d="M11.9813 62.5358C11.0938 62.5358 10.3542 62.2396 9.7625 61.6472C9.17083 61.0547 8.875 60.3141 8.875 59.4255V47.4282C8.875 46.737 9.09687 46.1317 9.54062 45.6123C9.98437 45.093 10.5514 44.7602 11.2417 44.6141L21.4479 42.5405C22.1382 42.4417 22.8413 42.5039 23.5572 42.7271C24.2731 42.9502 24.852 43.283 25.2938 43.7254L32.2458 50.6867C35.9931 48.4157 39.4198 45.7249 42.526 42.6145C45.6323 39.5041 48.2208 36.1716 50.2917 32.6168L43.1917 25.3593C42.7479 24.9149 42.4639 24.4084 42.3397 23.8396C42.2154 23.2709 42.2036 22.6419 42.3042 21.9526L44.2271 11.5847C44.3257 10.8935 44.6462 10.3257 45.1885 9.88136C45.7309 9.43701 46.3472 9.21484 47.0375 9.21484H59.0187C59.9062 9.21484 60.6458 9.51107 61.2375 10.1035C61.8292 10.696 62.125 11.4366 62.125 12.3252C62.125 18.6941 60.707 24.9031 57.8709 30.952C55.0349 37.001 51.2876 42.3578 46.6292 47.0224C41.9709 51.687 36.6212 55.4392 30.5803 58.279C24.5394 61.1189 18.3397 62.5378 11.9813 62.5358Z" fill="white"/>
</svg>
