<svg width="38" height="37" viewBox="0 0 38 37" fill="none" xmlns="http://www.w3.org/2000/svg">
<path d="M27.435 23.75H25.7597L25.1659 23.1763C26.4912 21.6334 27.4598 19.8162 28.0023 17.8544C28.5449 15.8927 28.6481 13.8351 28.3044 11.8288C27.3077 5.92126 22.3879 1.20376 16.4502 0.481258C14.3627 0.216622 12.2425 0.434022 10.2517 1.11682C8.26098 1.79962 6.45249 2.92972 4.96465 4.42065C3.4768 5.91158 2.34904 7.72381 1.66765 9.71869C0.986262 11.7136 0.769312 13.8382 1.0334 15.93C1.75441 21.88 6.46215 26.81 12.3574 27.8088C14.3596 28.1531 16.413 28.0498 18.3707 27.5061C20.3283 26.9624 22.1419 25.9918 23.6815 24.6638L24.254 25.2588V26.9375L33.2666 35.9688C34.1361 36.84 35.5569 36.84 36.4263 35.9688C37.2958 35.0975 37.2958 33.6738 36.4263 32.8025L27.435 23.75ZM14.7113 23.75C9.431 23.75 5.16858 19.4788 5.16858 14.1875C5.16858 8.89626 9.431 4.62501 14.7113 4.62501C19.9916 4.62501 24.254 8.89626 24.254 14.1875C24.254 19.4788 19.9916 23.75 14.7113 23.75Z" fill="black"/>
</svg>
